<?xml version="1.0" encoding="utf-8"?>
<!-- Generator: Adobe Illustrator 19.2.1, SVG Export Plug-In . SVG Version: 6.00 Build 0)  -->
<svg version="1.1" xmlns="http://www.w3.org/2000/svg" xmlns:xlink="http://www.w3.org/1999/xlink" x="0px" y="0px"
	 viewBox="0 0 112 112" style="enable-background:new 0 0 112 112;" xml:space="preserve">
<style type="text/css">
	.st0{fill:none;stroke:#000000;stroke-width:0.5;stroke-miterlimit:10;}
</style>
<g id="Layer_1">
	<g>
		<path d="M56,5.5c-27.6,0-50,22.4-50,50s22.4,50,50,50s50-22.4,50-50S83.6,5.5,56,5.5z M56,101.8C30.5,101.8,9.7,81,9.7,55.5
			S30.5,9.2,56,9.2s46.3,20.8,46.3,46.3S81.5,101.8,56,101.8z"/>
		<path d="M49.5,67.7l19.1-12.2L49.5,43.3V67.7z M53.2,50.1l8.5,5.4l-8.5,5.4V50.1z"/>
		<path d="M84,39.1c-0.4-2.5-2.7-4.7-5.2-5.1c-4.2-0.6-11.4-1.3-22-1.3S39,33.4,34.9,34c-2.5,0.4-4.9,2.6-5.4,5
			c-0.5,2.7-1.1,7.7-1.1,16.2c0,8.6,0.6,13.7,1.1,16.5c0.4,2.4,2.8,4.6,5.4,4.9c4.3,0.5,12.8,1.4,21.7,1.4s17.7-0.9,22-1.5
			c2.5-0.3,4.8-2.5,5.2-5c0.6-3.6,1.3-9.4,1.3-16.4C85.3,48.4,84.6,42.7,84,39.1L84,39.1z M80.4,71.1c-0.1,0.9-1.1,1.8-2,1.9
			c-4.4,0.6-12.9,1.5-21.7,1.5c-8.7,0-17.1-0.9-21.3-1.4c-1-0.1-2.1-1.1-2.2-1.9c-0.5-2.6-1.1-7.5-1.1-15.8c0-8.2,0.6-13,1-15.6
			c0.2-0.8,1.3-1.9,2.3-2c3.3-0.5,10.4-1.3,21.3-1.3c11,0,18.2,0.8,21.5,1.3c0.9,0.1,1.9,1.1,2.1,2c0.6,3.4,1.2,8.9,1.2,15.5
			C81.6,62,80.9,67.6,80.4,71.1z"/>
	</g>
</g>
<g id="Layer_2">
	<circle class="st0" cx="56" cy="56" r="48"/>
	<circle class="st0" cx="56" cy="55.8" r="55.8"/>
</g>
</svg>
