<?xml version="1.0" encoding="utf-8"?>
<!-- Generator: Adobe Illustrator 19.2.1, SVG Export Plug-In . SVG Version: 6.00 Build 0)  -->
<svg version="1.1" xmlns="http://www.w3.org/2000/svg" xmlns:xlink="http://www.w3.org/1999/xlink" x="0px" y="0px"
	 viewBox="0 0 112 112" style="enable-background:new 0 0 112 112;" xml:space="preserve">
<style type="text/css">
	.st0{fill:none;stroke:#000000;stroke-width:0.5;stroke-miterlimit:10;}
</style>
<g id="Layer_1" xmlns:cc="http://creativecommons.org/ns#" xmlns:dc="http://purl.org/dc/elements/1.1/" xmlns:inkscape="http://www.inkscape.org/namespaces/inkscape" xmlns:rdf="http://www.w3.org/1999/02/22-rdf-syntax-ns#" xmlns:sodipodi="http://sodipodi.sourceforge.net/DTD/sodipodi-0.dtd" xmlns:svg="http://www.w3.org/2000/svg">
	<g transform="translate(-147.29408,-335.78534)">
		<path d="M203.3,345.3c-3.3,0-6.6,0.4-9.8,1c0,0.3,0,0.7,0,1.2c0,1.1,0,2.7,0,4.7c0,3.8,0,9,0.1,14.1c0,5.1,0,10.2,0,14
			c0,1.9,0,3.5,0,4.6c0,0.5,0,0.8,0,1.1c0.3-0.2,0.7-0.5,1.2-0.9c1.1-0.9,2.7-2.1,4.6-3.6c3.8-2.9,8.9-6.9,14-10.8s10.2-7.8,14-10.7
			c1.9-1.5,3.5-2.7,4.6-3.5c0.4-0.3,0.7-0.5,1-0.7C224.8,349.2,214.5,345.3,203.3,345.3L203.3,345.3z M192.9,346.4
			c-14,3.1-25.7,12.4-32,24.9c0,0,0.1,0,0.1,0.1c0.2,0.2,0.6,0.5,1,0.8c0.9,0.7,2.2,1.7,3.7,2.9c3,2.4,7,5.5,11,8.7
			c4,3.2,8,6.3,11,8.7c1.5,1.2,2.7,2.2,3.6,2.9c0.4,0.3,0.6,0.5,0.8,0.7c0-0.4,0-0.9,0-1.5c0-1.4,0-3.4,0.1-5.8
			c0.1-4.8,0.2-11.2,0.3-17.6c0.1-6.4,0.2-12.8,0.3-17.6c0-2.4,0.1-4.4,0.1-5.8C192.9,347.2,192.9,346.8,192.9,346.4L192.9,346.4z
			 M233.4,356c-0.2,0.2-0.5,0.4-0.8,0.7c-0.9,0.7-2.1,1.7-3.6,2.9c-3,2.4-7,5.6-10.9,8.8s-7.9,6.4-10.9,8.8
			c-1.5,1.2-2.7,2.2-3.6,2.9c-0.4,0.3-0.6,0.5-0.8,0.7c0.4,0.1,0.8,0.2,1.5,0.3c1.4,0.3,3.3,0.8,5.6,1.4c4.7,1.1,10.9,2.7,17.1,4.2
			c6.2,1.5,12.5,3.1,17.1,4.2c2.3,0.6,4.3,1.1,5.6,1.4c0.6,0.1,0.9,0.2,1.3,0.3C250.7,377.8,244,364.7,233.4,356z M160.6,371.9
			c-3.1,6.3-4.8,13.4-4.8,20.9c0,7.1,1.6,13.9,4.4,19.9c0.1,0,0.2,0,0.3-0.1c0.3-0.1,0.7-0.2,1.3-0.3c1.1-0.3,2.7-0.6,4.5-1.1
			c3.7-0.9,8.7-2,13.7-3.2c5-1.2,9.9-2.3,13.6-3.2c1.9-0.4,3.4-0.8,4.5-1c0.5-0.1,0.8-0.2,1-0.2c-0.3-0.2-0.7-0.5-1.2-0.9
			c-1.1-0.9-2.6-2.1-4.5-3.7c-3.7-3-8.7-7.1-13.6-11.2c-4.9-4.1-9.9-8.2-13.6-11.2c-1.8-1.5-3.4-2.8-4.4-3.7
			C161.4,372.5,160.9,372.1,160.6,371.9C160.7,371.9,160.6,371.9,160.6,371.9L160.6,371.9z M212.2,384.4c0.2,0.3,0.4,0.8,0.6,1.3
			c0.6,1.3,1.4,3.1,2.5,5.3c2,4.4,4.7,10.2,7.4,16c2.7,5.8,5.4,11.7,7.4,16c1,2.2,1.8,4,2.4,5.2c0.3,0.6,0.5,1.1,0.7,1.4
			c10.7-8.6,17.6-21.8,17.7-36.6c-0.3-0.1-0.6-0.1-1.1-0.2c-1.1-0.2-2.7-0.6-4.6-1c-3.8-0.8-8.7-1.9-13.7-3.1s-9.9-2.2-13.7-3.1
			c-1.9-0.4-3.4-0.8-4.5-1C212.8,384.6,212.5,384.5,212.2,384.4L212.2,384.4z M193,386.4C193,386.5,193,386.5,193,386.4
			C193,386.5,193,386.5,193,386.4C193,386.5,193,386.5,193,386.4L193,386.4z M215.3,394.3c-0.2,0.3-0.4,0.8-0.6,1.3
			c-0.6,1.3-1.5,3-2.6,5.2c-2.1,4.3-5,10-7.9,15.8c-2.9,5.7-5.8,11.5-7.9,15.7c-1.1,2.1-2,3.9-2.6,5.2c-0.3,0.6-0.6,1.1-0.7,1.4
			c0,0.1-0.1,0.1-0.1,0.2c3.4,0.8,6.9,1.2,10.5,1.2c11.1,0,21.3-3.8,29.3-10.2c0,0,0,0,0-0.1c-0.1-0.3-0.3-0.7-0.6-1.2
			c-0.5-1-1.2-2.5-2-4.2c-1.7-3.5-3.9-8-6.2-12.6c-2.2-4.6-4.5-9.2-6.1-12.6c-0.8-1.7-1.5-3.2-2-4.2
			C215.5,394.9,215.4,394.6,215.3,394.3L215.3,394.3z M209.5,402.9c-0.4,0.1-0.8,0.2-1.5,0.3c-1.4,0.3-3.3,0.7-5.7,1.2
			c-4.7,1-11,2.3-17.3,3.6s-12.6,2.6-17.3,3.6c-2.3,0.5-4.3,0.9-5.7,1.2c-0.7,0.1-1.2,0.3-1.6,0.3c-0.1,0-0.2,0-0.2,0
			c6.1,12.8,17.7,22.4,31.8,25.7c0-0.1,0.1-0.1,0.1-0.3c0.1-0.3,0.3-0.7,0.6-1.2c0.5-1,1.2-2.5,2-4.2c1.7-3.5,3.8-8.1,6-12.7
			c2.2-4.6,4.4-9.2,6-12.6c0.8-1.7,1.5-3.1,2-4.1C209.2,403.4,209.4,403.1,209.5,402.9L209.5,402.9z"/>
	</g>
</g>
<g id="Layer_2">
	<circle class="st0" cx="56" cy="57" r="48"/>
	<circle class="st0" cx="56" cy="56.8" r="55.8"/>
</g>
</svg>
