<?xml version="1.0" encoding="utf-8"?>
<!-- Generator: Adobe Illustrator 19.2.1, SVG Export Plug-In . SVG Version: 6.00 Build 0)  -->
<svg version="1.1" xmlns="http://www.w3.org/2000/svg" xmlns:xlink="http://www.w3.org/1999/xlink" x="0px" y="0px"
	 viewBox="0 0 112 112" style="enable-background:new 0 0 112 112;" xml:space="preserve">
<style type="text/css">
	.st0{fill:none;stroke:#9BB7C4;stroke-miterlimit:10;}
	.st1{display:none;}
	.st2{display:inline;fill:none;stroke:#000000;stroke-width:0.5;stroke-miterlimit:10;}
</style>
<g id="Layer_1">
	<path class="st0" d="M68.2,27.4c1.4,0.6,2.8,1.3,3.9,2.2v-0.3h0.7c-1.3-1-2.7-1.9-4.3-2.6c-1-0.4-2-0.7-3.1-0.9v0.7
		C66.3,26.8,67.3,27.1,68.2,27.4z"/>
	<rect x="43.3" y="25.5" class="st0" width="18.1" height="0.7"/>
	<rect x="41" y="27.8" class="st0" width="0.7" height="56.5"/>
	<rect x="52.1" y="65.3" class="st0" width="0.7" height="19.1"/>
	<rect x="43.3" y="86" class="st0" width="7.2" height="0.7"/>
	<rect x="66.3" y="56.3" class="st0" width="0.7" height="5.2"/>
	<path class="st0" d="M64.4,37.5c0.8,0.7,1.3,1.6,1.7,2.8h0.7c-0.3-1.4-1-2.5-1.9-3.4c-0.7-0.6-1.6-1.1-2.7-1.4v0.7
		C63.1,36.6,63.8,37,64.4,37.5z"/>
	<rect x="54.4" y="54.3" class="st0" width="10.3" height="0.7"/>
	<rect x="54.4" y="35.1" class="st0" width="3.9" height="0.7"/>
	<rect x="52.1" y="37.4" class="st0" width="0.7" height="15.3"/>
	<rect x="40.1" y="24.7" class="st0" width="2.5" height="2.5"/>
	<rect x="62.1" y="24.7" class="st0" width="2.5" height="2.5"/>
	<rect x="51.2" y="34.2" class="st0" width="2.5" height="2.5"/>
	<rect x="51.2" y="53.3" class="st0" width="2.5" height="2.5"/>
	<rect x="51.2" y="62.1" class="st0" width="2.5" height="2.5"/>
	<rect x="51.2" y="85.1" class="st0" width="2.5" height="2.5"/>
	<rect x="40.1" y="85.1" class="st0" width="2.5" height="2.5"/>
	<rect x="65.6" y="41.1" class="st0" width="2.5" height="2.5"/>
	<rect x="59" y="34.2" class="st0" width="2.5" height="2.5"/>
	<rect x="65.4" y="53.3" class="st0" width="2.5" height="2.5"/>
	<rect x="65.4" y="62.1" class="st0" width="2.5" height="2.5"/>
	<rect x="72.8" y="30" class="st0" width="2.5" height="2.5"/>
	<path class="st0" d="M79.1,43.5v-2.5h-0.9V26.9c0.5-0.2,0.9-0.6,0.9-1.2c0-0.7-0.6-1.2-1.2-1.2c-0.7,0-1.2,0.6-1.2,1.2
		c0,0.6,0.4,1,0.9,1.2v9.5c-0.1-0.4-0.3-0.8-0.4-1.2c-0.3-0.8-0.7-1.5-1.1-2.1v0.2h-0.7c0.4,0.7,0.8,1.4,1.2,2.2
		c0.6,1.5,1,3.2,1.1,4.9h0v0.7h-0.8v2.5L79.1,43.5z"/>
	<rect x="68.8" y="41.9" class="st0" width="7.2" height="0.7"/>
	<rect x="54.4" y="63" class="st0" width="10.3" height="0.7"/>
</g>
<g id="Layer_2" class="st1">
	<circle class="st2" cx="56" cy="56" r="48"/>
	<circle class="st2" cx="56" cy="55.8" r="55.8"/>
</g>
</svg>
