<?xml version="1.0" encoding="utf-8"?>
<!-- Generator: Adobe Illustrator 19.2.1, SVG Export Plug-In . SVG Version: 6.00 Build 0)  -->
<svg version="1.1" xmlns="http://www.w3.org/2000/svg" xmlns:xlink="http://www.w3.org/1999/xlink" x="0px" y="0px"
	 viewBox="0 0 96 96" style="enable-background:new 0 0 96 96;" xml:space="preserve">
<style type="text/css">
	.st0{fill:none;stroke:#000000;stroke-width:0.5;stroke-miterlimit:10;}
</style>
<g id="Layer_1">
	<path d="M59.1,16.3c1.6,0.6,3.1,1.5,4.3,2.5v-0.4h0.8c-1.4-1.2-3-2.1-4.8-2.8c-1.1-0.4-2.3-0.8-3.5-1v0.8
		C57,15.6,58.1,15.9,59.1,16.3z"/>
	<rect x="31.5" y="14.2" width="20.1" height="0.8"/>
	<rect x="29" y="16.7" width="0.8" height="62.8"/>
	<rect x="41.3" y="58.3" width="0.8" height="21.2"/>
	<rect x="31.5" y="81.3" width="8" height="0.8"/>
	<rect x="57.1" y="48.3" width="0.8" height="5.8"/>
	<path d="M54.9,27.5c0.9,0.8,1.5,1.8,1.8,3.1h0.8c-0.4-1.6-1.1-2.8-2.1-3.7c-0.8-0.7-1.8-1.2-3-1.6v0.8
		C53.5,26.5,54.3,26.9,54.9,27.5z"/>
	<rect x="43.8" y="46.1" width="11.4" height="0.8"/>
	<rect x="43.8" y="24.8" width="4.3" height="0.8"/>
	<rect x="41.3" y="27.3" width="0.8" height="16.9"/>
	<rect x="28" y="13.2" width="2.7" height="2.7"/>
	<rect x="52.4" y="13.2" width="2.7" height="2.7"/>
	<rect x="40.3" y="23.8" width="2.7" height="2.7"/>
	<rect x="40.3" y="45" width="2.7" height="2.7"/>
	<rect x="40.3" y="54.8" width="2.7" height="2.7"/>
	<rect x="40.3" y="80.3" width="2.7" height="2.7"/>
	<rect x="28" y="80.3" width="2.7" height="2.7"/>
	<rect x="56.2" y="31.4" width="2.7" height="2.7"/>
	<rect x="49" y="23.8" width="2.7" height="2.7"/>
	<rect x="56.1" y="45" width="2.7" height="2.7"/>
	<rect x="56.1" y="54.8" width="2.7" height="2.7"/>
	<rect x="64.2" y="19.2" width="2.7" height="2.7"/>
	<path d="M70.2,34.2h1.1v-2.7h-1.1V15.7c0.6-0.2,1-0.7,1-1.3c0-0.8-0.6-1.4-1.4-1.4c-0.8,0-1.4,0.6-1.4,1.4c0,0.6,0.4,1.1,1,1.3
		v10.6c-0.1-0.5-0.3-0.9-0.5-1.4c-0.3-0.8-0.8-1.6-1.2-2.4v0.2H67c0.5,0.8,0.9,1.6,1.3,2.5c0.7,1.7,1.1,3.5,1.2,5.5h0v0.8h-0.9v2.7
		h0.9"/>
	<rect x="59.8" y="32.4" width="8" height="0.8"/>
	<rect x="43.8" y="55.8" width="11.4" height="0.8"/>
</g>
<g id="Layer_2">
	<circle class="st0" cx="48" cy="48" r="48"/>
</g>
</svg>
