<?xml version="1.0" encoding="utf-8"?>
<!-- Generator: Adobe Illustrator 19.2.1, SVG Export Plug-In . SVG Version: 6.00 Build 0)  -->
<svg version="1.1" xmlns="http://www.w3.org/2000/svg" xmlns:xlink="http://www.w3.org/1999/xlink" x="0px" y="0px"
	 viewBox="0 0 112 112" style="enable-background:new 0 0 112 112;" xml:space="preserve">
<style type="text/css">
	.st0{fill:#9BB7C4;}
	.st1{display:none;}
	.st2{display:inline;fill:none;stroke:#000000;stroke-width:0.5;stroke-miterlimit:10;}
</style>
<g id="Layer_1" xmlns:cc="http://creativecommons.org/ns#" xmlns:dc="http://purl.org/dc/elements/1.1/" xmlns:inkscape="http://www.inkscape.org/namespaces/inkscape" xmlns:rdf="http://www.w3.org/1999/02/22-rdf-syntax-ns#" xmlns:sodipodi="http://sodipodi.sourceforge.net/DTD/sodipodi-0.dtd" xmlns:svg="http://www.w3.org/2000/svg">
	<g>
		<path class="st0" d="M-8.3,55.2c0,0.2,0,0.4,0,0.6C-8.3,55.6-8.3,55.4-8.3,55.2z"/>
		<path class="st0" d="M103,54.8c-1.3-0.3-3.3-0.8-5.6-1.4c-4.7-1.2-10.9-2.7-17.1-4.2S67.8,46.1,63.1,45c-2.3-0.6-4.3-1-5.6-1.4
			c-0.6-0.1-1.1-0.3-1.5-0.3c0.2-0.2,0.5-0.4,0.8-0.7c0.9-0.7,2.1-1.7,3.6-2.9c3-2.4,7-5.6,10.9-8.8s8-6.4,10.9-8.8
			c1.5-1.2,2.7-2.2,3.6-2.9c0.4-0.3,1.1-0.9,1.3-1.1c11,10,16.9,19.3,16.9,36.6c0-15.3-26.9-43.3-45.9-47.7
			c11.7,0,22.3,4.9,28.5,10.7c-0.3,0.2-1.1,0.9-1.5,1.2c-1.1,0.8-2.7,2.1-4.6,3.5c-3.8,2.9-8.9,6.8-14,10.7
			c-5.1,3.9-10.2,7.8-14,10.8c-1.9,1.5-3.5,2.7-4.6,3.6c-0.5,0.4-0.9,0.7-1.2,0.9c0-0.3,0-0.6,0-1.1c0-1.1,0-2.7,0-4.6
			c0-3.8,0-8.9,0-14c0-5.1,0-10.2-0.1-14.1c0-1.9,0-3.5,0-4.7c0-0.5,0-0.8,0-1.1c-0.2,0-0.4,0.1-0.6,0.1c0,0.3,0,0.7,0,1.3
			c0,1.4-0.1,3.4-0.1,5.8C46.2,21,46,27.4,45.9,33.8s-0.2,12.8-0.3,17.6c0,2.4-0.1,4.4-0.1,5.8c0,0.6,0,1.1,0,1.5
			c-0.2-0.2-0.5-0.4-0.8-0.7c-0.9-0.7-2.1-1.7-3.6-2.9c-3-2.4-7-5.5-11-8.7s-8-6.3-11-8.7c-1.5-1.2-2.8-2.2-3.7-2.9
			c-0.4-0.3-0.6-0.5-0.9-0.7c-0.1,0.2-0.2,0.4-0.3,0.5c0.3,0.2,0.6,0.5,1,0.8c1.1,0.9,2.6,2.2,4.4,3.7c3.7,3.1,8.6,7.2,13.6,11.2
			s9.9,8.2,13.6,11.2c1.9,1.5,3.4,2.8,4.5,3.7c0.5,0.4,0.9,0.7,1.2,0.9c-0.3,0.1-0.6,0.1-1,0.2c-1.1,0.2-2.6,0.6-4.5,1
			c-3.7,0.8-8.7,2-13.6,3.2s-9.9,2.3-13.7,3.2c-1.9,0.4-3.4,0.8-4.5,1.1c-0.4,0.1-0.8,0.2-1.1,0.3c0.1,0.2,0.2,0.4,0.2,0.5
			c0.3-0.1,0.8-0.2,1.3-0.3c1.4-0.3,3.3-0.7,5.7-1.2c4.7-1,11-2.3,17.3-3.6c6.3-1.3,12.6-2.6,17.3-3.6c2.4-0.5,4.3-0.9,5.7-1.2
			c0.6-0.1,1.1-0.2,1.5-0.3v0c-0.1,0.3-0.3,0.5-0.5,1c-0.5,1-1.2,2.4-2,4.1c-1.7,3.4-3.9,8-6,12.6s-4.4,9.2-6,12.7
			c-0.8,1.7-1.5,3.2-2,4.2c-0.2,0.4-0.4,0.7-0.5,1c0.2,0,0.4,0.1,0.6,0.1c0.2-0.3,0.3-0.7,0.6-1.1c0.6-1.2,1.5-3,2.6-5.2
			c2.2-4.3,5.1-10,7.9-15.7c2.9-5.7,5.8-11.5,7.9-15.8c1.1-2.2,2-3.9,2.6-5.2c0.3-0.6,0.5-1,0.6-1.3l0,0c0.1,0.3,0.3,0.6,0.4,1
			c0.5,1,1.2,2.4,2,4.2c1.7,3.4,3.9,8,6.1,12.6c2.2,4.6,4.5,9.2,6.2,12.6c0.8,1.7,1.6,3.2,2,4.2c0.2,0.4,0.4,0.7,0.5,1
			c0.2-0.1,0.3-0.2,0.5-0.4c-0.1-0.3-0.3-0.7-0.5-1.2c-0.6-1.3-1.4-3.1-2.4-5.2c-2-4.4-4.7-10.2-7.4-16c-2.7-5.8-5.4-11.7-7.4-16
			c-1-2.2-1.9-4-2.5-5.3c-0.3-0.6-0.5-1-0.6-1.3v0c0.3,0.1,0.6,0.1,1,0.3c1.1,0.3,2.6,0.6,4.5,1c3.7,0.9,8.7,2,13.7,3.1
			c5,1.1,10,2.2,13.7,3.1c1.9,0.4,3.4,0.8,4.6,1c0.5,0.1,0.8,0.2,1.1,0.2c0-0.2,0-0.4,0-0.6c0,0,0,0,0,0
			C103.9,55.1,103.5,55,103,54.8z M46.5,49.1C46.5,49.1,46.5,49.1,46.5,49.1C46.5,49.1,46.5,49.1,46.5,49.1L46.5,49.1
			C46.5,49.1,46.5,49.1,46.5,49.1z"/>
		<path class="st0" d="M-49.8,6.3c-0.5-0.1-0.9-0.1-1.4-0.1C-50.7,6.2-50.3,6.3-49.8,6.3z"/>
		<path class="st0" d="M-52.8,6c-0.1,0-0.2,0-0.4,0C-53.1,6-52.9,6-52.8,6z"/>
	</g>
</g>
<g id="Layer_2" class="st1">
	<circle class="st2" cx="56" cy="56" r="48"/>
	<circle class="st2" cx="56" cy="55.8" r="55.8"/>
</g>
</svg>
