<?xml version="1.0" encoding="utf-8"?>
<!-- Generator: Adobe Illustrator 19.2.1, SVG Export Plug-In . SVG Version: 6.00 Build 0)  -->
<svg version="1.1" xmlns="http://www.w3.org/2000/svg" xmlns:xlink="http://www.w3.org/1999/xlink" x="0px" y="0px"
	 viewBox="0 0 112 112" style="enable-background:new 0 0 112 112;" xml:space="preserve">
<style type="text/css">
	.st0{fill:#9BB7C4;}
	.st1{display:none;}
	.st2{display:inline;fill:none;stroke:#000000;stroke-width:0.5;stroke-miterlimit:10;}
</style>
<g id="Layer_1">
	<g>
		<path class="st0" d="M53.7,65L65,57.8c1.7-1.1,1.7-3.5,0-4.6L53.7,46c-1.8-1.2-4.2,0.1-4.2,2.3v14.4C49.5,64.9,51.9,66.2,53.7,65z
			 M53.2,50.1l8.5,5.4l-8.5,5.4V50.1z"/>
		<path class="st0" d="M84,39.1c-0.4-2.5-2.7-4.7-5.2-5.1c-4.2-0.6-11.4-1.3-22-1.3S39,33.4,34.9,34c-2.5,0.4-4.9,2.6-5.4,5
			c-0.5,2.7-1.1,7.7-1.1,16.2c0,8.6,0.6,13.7,1.1,16.5c0.4,2.4,2.8,4.6,5.4,4.9c4.3,0.5,12.8,1.4,21.7,1.4s17.7-0.9,22-1.5
			c2.5-0.3,4.8-2.5,5.2-5c0.6-3.6,1.3-9.4,1.3-16.4C85.3,48.4,84.6,42.7,84,39.1L84,39.1z M80.4,71.1c-0.1,0.9-1.1,1.8-2,1.9
			c-4.4,0.6-12.9,1.5-21.7,1.5c-8.7,0-17.1-0.9-21.3-1.4c-1-0.1-2.1-1.1-2.2-1.9c-0.5-2.6-1.1-7.5-1.1-15.8c0-8.2,0.6-13,1-15.6
			c0.2-0.8,1.3-1.9,2.3-2c3.3-0.5,10.4-1.3,21.3-1.3c11,0,18.2,0.8,21.5,1.3c0.9,0.1,1.9,1.1,2.1,2c0.6,3.4,1.2,8.9,1.2,15.5
			C81.6,62,80.9,67.6,80.4,71.1z"/>
	</g>
</g>
<g id="Layer_2" class="st1">
	<circle class="st2" cx="56" cy="56" r="48"/>
	<circle class="st2" cx="56" cy="55.8" r="55.8"/>
</g>
</svg>
