<?xml version="1.0" encoding="utf-8"?>
<!-- Generator: Adobe Illustrator 19.2.1, SVG Export Plug-In . SVG Version: 6.00 Build 0)  -->
<svg version="1.1" xmlns="http://www.w3.org/2000/svg" xmlns:xlink="http://www.w3.org/1999/xlink" x="0px" y="0px"
	 viewBox="0 0 112 112" style="enable-background:new 0 0 112 112;" xml:space="preserve">
<style type="text/css">
	.st0{fill:#9BB7C4;}
	.st1{display:none;}
	.st2{display:inline;fill:none;stroke:#000000;stroke-width:0.5;stroke-miterlimit:10;}
</style>
<g id="Layer_1">
	<path class="st0" d="M-68.7-39.7c-27.6,0-50,22.4-50,50s22.4,50,50,50s50-22.4,50-50S-41.1-39.7-68.7-39.7z M-82.8,20.8
		c1.4,1.6,1.2,4.1-0.4,5.5s-4.1,1.2-5.5-0.4L-100,12.8c-1.3-1.5-1.3-3.6,0-5.1l11.2-13.1c0.7-0.9,1.8-1.4,3-1.4
		c0.9,0,1.8,0.3,2.5,0.9c0.8,0.7,1.3,1.6,1.3,2.7c0.1,1-0.3,2-0.9,2.8l-9,10.7L-82.8,20.8z M-59.5-1.2l-11.2,26.1
		c-0.8,1.9-3.2,2.9-5.1,2c-1-0.4-1.7-1.2-2.1-2.1c-0.4-1-0.4-2,0-3l11.2-26.1c0.6-1.4,2-2.4,3.6-2.4c0.5,0,1,0.1,1.5,0.3
		c1,0.4,1.7,1.2,2.1,2.1C-59.1-3.2-59.1-2.2-59.5-1.2z M-37.4,12.8l-11.2,13.1c-1.4,1.6-3.9,1.8-5.5,0.4s-1.8-3.9-0.4-5.5l9-10.5
		l-9.1-10.5C-55.3-1-55.6-2-55.5-3s0.6-2,1.3-2.7c0.7-0.6,1.6-0.9,2.5-0.9c1.1,0,2.2,0.5,3,1.4l11.3,13.1
		C-36.1,9.2-36.1,11.4-37.4,12.8z"/>
	<path class="st0" d="M38,67.6l-4.9,4.1L21.8,58.6c-1.3-1.5-1.3-3.6,0-5.1L33,40.4l4.9,4l-10,11.7L38,67.6z"/>
	<polygon class="st0" points="64.2,44 53,70.1 47.8,67 59,41.9 	"/>
	<path class="st0" d="M90.2,58.5L79,71.6l-4.9-4.1l10-11.5L74,44.5l4.9-4l11.3,13.1C91.5,54.9,91.5,57.1,90.2,58.5z"/>
</g>
<g id="Layer_2" class="st1">
	<circle class="st2" cx="56" cy="56" r="48"/>
	<circle class="st2" cx="56" cy="55.8" r="55.8"/>
</g>
</svg>
